# xmcd
#
# Track frame offsets:
#	150
#	15485
#	32676
#	49953
#	72759
#
# Disc length: 1400 seconds
#
# Revision: 0
# Processed by: cddbd v1.5.1PL2 Copyright (c) Steve Scherf et al.
# Submitted via: audiograbber 1.83.01
#
DISCID=38057605
DTITLE=Arash - Arash
DYEAR=2006
DGENRE=R&B
TTITLE0=Arash (Radio Edit)
TTITLE1=Arash (Video Edit)
TTITLE2=Arash (Mintman Reggation Mix)
TTITLE3=Arash (Payami Vocal Club)
TTITLE4=Arash (Payami Fresh Remix)
EXTD=
EXTT0=
EXTT1=
EXTT2=
EXTT3=
EXTT4=
PLAYORDER=
